<svg width="22" height="18" viewBox="0 0 22 18" fill="none" xmlns="http://www.w3.org/2000/svg">
<path d="M10.3292 3.33518L11 4.67684L11.6708 3.33518C12.1365 2.40383 12.6368 1.77904 13.25 1.37718C13.8584 0.978477 14.6533 0.75 15.7985 0.75C17.766 0.75 19.1151 1.69994 19.9082 3.04323C20.7188 4.41604 20.9514 6.21556 20.574 7.82894L20.574 7.82897C20.2174 9.35359 19.3054 10.7424 18.2637 11.8922C17.2261 13.0374 16.0999 13.9013 15.3882 14.3757C14.6508 14.8674 13.4603 15.6109 12.446 16.2364C11.9406 16.548 11.4818 16.8286 11.1493 17.0313C11.0962 17.0636 11.0463 17.094 11 17.1222C10.9537 17.094 10.9038 17.0636 10.8507 17.0313C10.5182 16.8286 10.0594 16.548 9.55403 16.2364C8.53967 15.6109 7.34925 14.8674 6.61176 14.3757C5.90005 13.9013 4.77388 13.0374 3.7363 11.8922C2.69461 10.7424 1.7826 9.35359 1.42601 7.82897L1.42601 7.82894C1.0486 6.21556 1.28119 4.41604 2.09178 3.04323C2.88495 1.69994 4.23399 0.75 6.20146 0.75C7.34669 0.75 8.14162 0.978477 8.74999 1.37718C9.36317 1.77904 9.86351 2.40383 10.3292 3.33518Z" stroke="#0D0D0D" stroke-width="1.5"/>
</svg>
